<svg width="28" height="28" viewBox="0 0 28 28" fill="none" xmlns="http://www.w3.org/2000/svg">
<path d="M11.6667 14C10.3834 14 9.28476 13.5431 8.37087 12.6292C7.45699 11.7153 7.00004 10.6167 7.00004 9.33334C7.00004 8.05001 7.45699 6.95139 8.37087 6.03751C9.28476 5.12362 10.3834 4.66667 11.6667 4.66667C12.95 4.66667 14.0487 5.12362 14.9625 6.03751C15.8764 6.95139 16.3334 8.05001 16.3334 9.33334C16.3334 10.6167 15.8764 11.7153 14.9625 12.6292C14.0487 13.5431 12.95 14 11.6667 14ZM2.33337 23.3333V20.0667C2.33337 19.425 2.49865 18.8222 2.82921 18.2583C3.15976 17.6944 3.61671 17.2667 4.20004 16.975C5.19171 16.4694 6.30976 16.0417 7.55421 15.6917C8.79865 15.3417 10.1695 15.1667 11.6667 15.1667H12.075C12.1917 15.1667 12.3084 15.1861 12.425 15.225C12.2695 15.575 12.1382 15.9396 12.0313 16.3188C11.9243 16.6979 11.8417 17.0917 11.7834 17.5H11.6667C10.2862 17.5 9.04657 17.675 7.94796 18.025C6.84935 18.375 5.95004 18.725 5.25004 19.075C5.07504 19.1722 4.93407 19.3083 4.82712 19.4833C4.72018 19.6583 4.66671 19.8528 4.66671 20.0667V21H12.0167C12.1334 21.4083 12.2889 21.8118 12.4834 22.2104C12.6778 22.609 12.8917 22.9833 13.125 23.3333H2.33337ZM18.6667 24.5L18.3167 22.75C18.0834 22.6528 17.8646 22.5507 17.6605 22.4438C17.4563 22.3368 17.2473 22.2056 17.0334 22.05L15.3417 22.575L14.175 20.5917L15.5167 19.425C15.4778 19.1528 15.4584 18.9 15.4584 18.6667C15.4584 18.4333 15.4778 18.1806 15.5167 17.9083L14.175 16.7417L15.3417 14.7583L17.0334 15.2833C17.2473 15.1278 17.4563 14.9965 17.6605 14.8896C17.8646 14.7826 18.0834 14.6806 18.3167 14.5833L18.6667 12.8333H21L21.35 14.5833C21.5834 14.6806 21.8021 14.7875 22.0063 14.9042C22.2105 15.0208 22.4195 15.1667 22.6334 15.3417L24.325 14.7583L25.4917 16.8L24.15 17.9667C24.1889 18.2 24.2084 18.4431 24.2084 18.6958C24.2084 18.9486 24.1889 19.1917 24.15 19.425L25.4917 20.5917L24.325 22.575L22.6334 22.05C22.4195 22.2056 22.2105 22.3368 22.0063 22.4438C21.8021 22.5507 21.5834 22.6528 21.35 22.75L21 24.5H18.6667ZM19.8334 21C20.475 21 21.0243 20.7715 21.4813 20.3146C21.9382 19.8576 22.1667 19.3083 22.1667 18.6667C22.1667 18.025 21.9382 17.4757 21.4813 17.0188C21.0243 16.5618 20.475 16.3333 19.8334 16.3333C19.1917 16.3333 18.6424 16.5618 18.1855 17.0188C17.7285 17.4757 17.5 18.025 17.5 18.6667C17.5 19.3083 17.7285 19.8576 18.1855 20.3146C18.6424 20.7715 19.1917 21 19.8334 21ZM11.6667 11.6667C12.3084 11.6667 12.8577 11.4382 13.3146 10.9813C13.7716 10.5243 14 9.97501 14 9.33334C14 8.69167 13.7716 8.14237 13.3146 7.68542C12.8577 7.22848 12.3084 7.00001 11.6667 7.00001C11.025 7.00001 10.4757 7.22848 10.0188 7.68542C9.56185 8.14237 9.33337 8.69167 9.33337 9.33334C9.33337 9.97501 9.56185 10.5243 10.0188 10.9813C10.4757 11.4382 11.025 11.6667 11.6667 11.6667Z" fill="#05C2DF"/>
</svg>
