<svg width="23" height="20" viewBox="0 0 23 20" fill="none" xmlns="http://www.w3.org/2000/svg">
<path id="Vector" d="M10.4683 15H12.5951V11H16.8488V9H12.5951V5H10.4683V9H6.21466V11H10.4683V15ZM11.5317 20C10.0607 20 8.67823 19.7375 7.38441 19.2125C6.09059 18.6875 4.96514 17.975 4.00807 17.075C3.051 16.175 2.29331 15.1167 1.73502 13.9C1.17673 12.6833 0.897583 11.3833 0.897583 10C0.897583 8.61667 1.17673 7.31667 1.73502 6.1C2.29331 4.88333 3.051 3.825 4.00807 2.925C4.96514 2.025 6.09059 1.3125 7.38441 0.7875C8.67823 0.2625 10.0607 0 11.5317 0C13.0028 0 14.3852 0.2625 15.679 0.7875C16.9729 1.3125 18.0983 2.025 19.0554 2.925C20.0125 3.825 20.7701 4.88333 21.3284 6.1C21.8867 7.31667 22.1659 8.61667 22.1659 10C22.1659 11.3833 21.8867 12.6833 21.3284 13.9C20.7701 15.1167 20.0125 16.175 19.0554 17.075C18.0983 17.975 16.9729 18.6875 15.679 19.2125C14.3852 19.7375 13.0028 20 11.5317 20ZM11.5317 18C13.9067 18 15.9183 17.225 17.5666 15.675C19.2149 14.125 20.039 12.2333 20.039 10C20.039 7.76667 19.2149 5.875 17.5666 4.325C15.9183 2.775 13.9067 2 11.5317 2C9.15677 2 7.14514 2.775 5.49685 4.325C3.84856 5.875 3.02441 7.76667 3.02441 10C3.02441 12.2333 3.84856 14.125 5.49685 15.675C7.14514 17.225 9.15677 18 11.5317 18Z" fill="#05C2DF"/>
</svg>
